<?xml version="1.0" encoding="iso-8859-1"?>
<!-- Generator: Adobe Illustrator 16.0.4, SVG Export Plug-In . SVG Version: 6.00 Build 0)  -->
<!DOCTYPE svg PUBLIC "-//W3C//DTD SVG 1.1//EN" "http://www.w3.org/Graphics/SVG/1.1/DTD/svg11.dtd">
<svg version="1.1" id="Layer_1" xmlns="http://www.w3.org/2000/svg" xmlns:xlink="http://www.w3.org/1999/xlink" x="0px" y="0px"
	 width="120px" height="120px" viewBox="0 0 120 120" style="enable-background:new 0 0 120 120;" xml:space="preserve">
<path style="fill:#662D91;" d="M110.529,62.479c-3.063-2.955-7.691-5.61-13.875-7.964c4.216-2.134,7.445-4.489,9.689-7.062
	c4.321-4.871,6.483-11.109,6.483-18.716c0-6.515-1.762-11.685-5.286-16.667C101.533,3.641,91.427,0,77.214,0H0v120h76.365
	c15.97,0,27.619-4.979,34.939-14.394c4.901-6.294,7.354-13.463,7.354-21.235C118.659,75.12,115.947,67.731,110.529,62.479z"/>
<g>
	<path style="fill:#FFFFFF;" d="M29.603,65.66h8.018V97.14h19.165v6.9H29.603V65.66z"/>
	<path style="fill:#FFFFFF;" d="M87.979,77.638c-0.607-2.621-2.092-4.452-4.451-5.494c-1.32-0.573-2.787-0.858-4.402-0.858
		c-3.088,0-5.627,1.165-7.615,3.494c-1.987,2.332-2.98,5.835-2.98,10.512c0,4.714,1.075,8.048,3.229,10.006
		c2.152,1.959,4.6,2.938,7.342,2.938c2.691,0,4.895-0.772,6.615-2.317c1.717-1.543,2.777-3.565,3.176-6.066h-8.879v-6.407H96v20.597
		h-5.312l-0.807-4.791c-1.547,1.814-2.936,3.094-4.166,3.837c-2.119,1.295-4.723,1.943-7.812,1.943
		c-5.086,0-9.252-1.76-12.498-5.282c-3.384-3.538-5.077-8.378-5.077-14.52c0-6.21,1.709-11.188,5.13-14.936
		c3.418-3.748,7.941-5.622,13.564-5.622c4.879,0,8.797,1.238,11.756,3.712c2.959,2.473,4.658,5.56,5.09,9.256H87.979z"/>
</g>
<g>
	<path style="fill:#FFFFFF;" d="M19.322,52.34H10l12.341-19.554L10.598,13.96h9.583l6.845,12.498l7.033-12.498h9.269L31.584,32.472
		L44.057,52.34h-9.738l-7.292-13.087L19.322,52.34z"/>
	<path style="fill:#FFFFFF;" d="M54.537,40.493c0.249,1.754,0.736,3.063,1.462,3.932c1.33,1.579,3.606,2.369,6.833,2.369
		c1.932,0,3.5-0.208,4.705-0.625c2.287-0.798,3.43-2.282,3.43-4.452c0-1.268-0.561-2.248-1.68-2.943
		c-1.121-0.676-2.898-1.275-5.328-1.796l-4.157-0.911c-4.083-0.903-6.888-1.884-8.416-2.943c-2.586-1.77-3.88-4.538-3.88-8.306
		c0-3.438,1.264-6.291,3.795-8.566c2.53-2.274,6.248-3.411,11.149-3.411c4.094,0,7.588,1.072,10.479,3.216
		c2.891,2.144,4.406,5.256,4.547,9.334H69.77c-0.143-2.308-1.176-3.948-3.098-4.921c-1.281-0.643-2.873-0.963-4.777-0.963
		c-2.118,0-3.809,0.416-5.071,1.25c-1.265,0.833-1.896,1.997-1.896,3.489c0,1.371,0.623,2.395,1.868,3.072
		c0.801,0.452,2.501,0.98,5.099,1.588l6.736,1.589c2.951,0.694,5.164,1.623,6.639,2.786c2.285,1.804,3.43,4.417,3.43,7.837
		c0,3.506-1.355,6.418-4.066,8.735c-2.711,2.318-6.539,3.476-11.486,3.476c-5.053,0-9.027-1.141-11.923-3.424
		c-2.894-2.282-4.342-5.419-4.342-9.412H54.537z"/>
</g>
</svg>
